<svg id="Capa_1" data-name="Capa 1" xmlns="http://www.w3.org/2000/svg" viewBox="0 0 58.99 64.8"><defs><style>.cls-1{fill:#252525;}</style></defs><title>symbols</title><path class="cls-1" d="M5.13,46.58c5.15,9.66,13.31,8.16,13.31,8.16A13.8,13.8,0,0,0,29.81,44.65,13.8,13.8,0,0,0,41.18,54.74s8.16,1.5,13.31-8.16a14.68,14.68,0,0,0,1.5-9s.19-6.33-6.44-11.38L29.81,3.44,10.06,26.19c-5.58,3-6.44,11.38-6.44,11.38A14.68,14.68,0,0,0,5.13,46.58Z"/><polygon class="cls-1" points="29.81 46.95 20.39 62.83 39.23 62.83 29.81 46.95"/></svg>