<svg id="Capa_1" data-name="Capa 1" xmlns="http://www.w3.org/2000/svg" viewBox="0 0 152.67 232.67"><defs><style>.cls-1{fill:#252525;stroke:#d3d3d3;stroke-width:0.5px;}.cls-1,.cls-3,.cls-5{stroke-miterlimit:10;}.cls-2{font-size:12.33px;}.cls-2,.cls-6,.cls-8{fill:#f4f4f4;}.cls-2,.cls-6{font-family:BlackOpsOne-Regular, Black Ops One;}.cls-3{font-size:29.43px;letter-spacing:0.11em;}.cls-3,.cls-5{fill:none;stroke:#f4f4f4;font-family:CinzelDecorative-Black, Cinzel Decorative;}.cls-4{fill:#c1303a;}.cls-5{font-size:42.22px;letter-spacing:0.11em;}.cls-6{font-size:18px;}.cls-7{fill:#c13039;}</style></defs><title>social</title><rect class="cls-1" x="2.57" y="2.3" width="147.96" height="228.43" rx="9.2" ry="9.2"/><text class="cls-2" transform="translate(15.57 95.73) scale(1.27 1)">AM</text><text class="cls-3" transform="translate(14.01 120.85) scale(1.27 1)">G</text><path class="cls-4" d="M65.56,100.46a17.68,17.68,0,0,1-9.69,14s9.95,4.83,9.89,22.34c0,0-1.76-14.72,9.59-22.34C75.35,114.44,67.64,112,65.56,100.46Z"/><ellipse class="cls-4" cx="65.61" cy="96.91" rx="2.13" ry="2.05"/><text class="cls-5" transform="translate(77.89 123.81) scale(1.27 1)">K</text><text class="cls-6" transform="translate(39.23 24.61)">SOCIAL</text><path class="cls-4" d="M21.27,191.74a12.33,12.33,0,0,1-6.46,9.69s6.63,3.35,6.59,15.48c0,0-1.17-10.2,6.39-15.48C27.79,201.42,22.65,199.75,21.27,191.74Z"/><path class="cls-7" d="M63.29,197.65c-2-3.69-5.09-3.12-5.09-3.12a5.28,5.28,0,0,0-4.35,3.86,5.28,5.28,0,0,0-4.35-3.86s-3.12-.57-5.09,3.12a5.61,5.61,0,0,0-.57,3.45,5.7,5.7,0,0,0,2.46,4.35l7.55,8.7,7.55-8.7c2.13-1.15,2.46-4.35,2.46-4.35A5.61,5.61,0,0,0,63.29,197.65Z"/><path class="cls-8" d="M120.61,207.29c1.9,3.56,4.91,3,4.91,3a5.09,5.09,0,0,0,4.19-3.72,5.09,5.09,0,0,0,4.19,3.72s3,.55,4.91-3a5.41,5.41,0,0,0,.55-3.32,5.49,5.49,0,0,0-2.37-4.19l-7.28-8.39-7.28,8.39c-2.06,1.11-2.37,4.19-2.37,4.19A5.41,5.41,0,0,0,120.61,207.29Z"/><polygon class="cls-8" points="129.71 207.42 126.24 213.28 133.19 213.28 129.71 207.42"/><polygon class="cls-8" points="89.67 207.82 86.42 213.29 92.92 213.29 89.67 207.82"/><circle class="cls-8" cx="95.14" cy="205.25" r="5.71"/><circle class="cls-8" cx="89.67" cy="197.08" r="5.71"/><circle class="cls-8" cx="84.26" cy="205.25" r="5.71"/></svg>